<?xml version="1.0" encoding="UTF-8"?>
<svg version="1.1" xmlns="http://www.w3.org/2000/svg" width="536" height="536">
<path d="M0 0 C0.66 0 1.32 0 2 0 C2.53548462 1.00728149 2.53548462 1.00728149 3.08178711 2.03491211 C6.67008644 8.70902106 10.48192568 15.17866559 14.5625 21.5625 C15.16747314 22.51068604 15.77244629 23.45887207 16.39575195 24.43579102 C21.79622105 32.82193098 27.53618562 40.92181538 33.47265625 48.93457031 C34.96055406 50.94665718 36.43556704 52.96749386 37.90625 54.9921875 C49.25952675 70.73836944 49.25952675 70.73836944 61.8203125 85.51171875 C63 87 63 87 63 89 C63.66 89 64.32 89 65 89 C66.33984375 90.546875 66.33984375 90.546875 67.9375 92.75 C71.72417602 97.76991497 75.87264138 102.31787584 80.15625 106.91015625 C82.15656043 109.05675441 84.07196807 111.25722088 85.97265625 113.4921875 C91.05251003 119.32176623 96.57744228 124.72635746 102.05151367 130.18188477 C103.93328274 132.05829475 105.80964738 133.93998969 107.68554688 135.82226562 C113.62245924 141.76252206 119.58620657 147.57057312 126 153 C128.64085822 155.38460244 131.2711525 157.78015476 133.8984375 160.1796875 C135.86723421 162.03676667 135.86723421 162.03676667 138 163 C138 163.66 138 164.32 138 165 C138.54785156 165.23976562 139.09570312 165.47953125 139.66015625 165.7265625 C142.5600794 167.30481783 144.90372008 169.25941677 147.4375 171.375 C151.59304186 174.83151011 151.59304186 174.83151011 155.84765625 178.1640625 C156.55792969 178.76992187 157.26820313 179.37578125 158 180 C158 180.66 158 181.32 158 182 C150.06299999 182.35075126 142.12933685 182.61559788 134.18645477 182.77718258 C130.49599309 182.85482652 126.81090295 182.95966126 123.12353516 183.1315918 C96.06910572 184.35887302 96.06910572 184.35887302 87.69602966 177.19778442 C85.14131045 174.59451152 82.82212787 171.87985074 80.59136963 168.99533081 C78.13199461 165.91165581 75.2884856 163.27754283 72.43359375 160.56640625 C71.42034324 159.56144419 70.41051173 158.55302204 69.40429688 157.54101562 C67.39554506 155.52365251 65.38245556 153.51084794 63.36523438 151.50195312 C58.03524091 146.17566795 52.85031155 140.77270701 48 135 C47.49662109 134.40195557 46.99324219 133.80391113 46.47460938 133.18774414 C45.31066882 131.7966098 44.1542963 130.39914703 43 129 C41.33278749 132.33442503 41.86741139 136.07850921 41.87974548 139.74441528 C41.87846385 141.11905215 41.87846385 141.11905215 41.87715632 142.52145946 C41.87550126 145.61084274 41.88102333 148.70017245 41.88647461 151.78955078 C41.8867565 153.99671426 41.88659871 156.20387783 41.8860321 158.41104126 C41.88574421 164.41900384 41.89163967 170.42694661 41.89860606 176.43490458 C41.90484091 182.70764981 41.9054435 188.98039546 41.90663147 195.25314331 C41.90939032 205.78676695 41.91564418 216.32038406 41.92456055 226.85400391 C41.93373595 237.70491499 41.94081616 248.5558241 41.94506836 259.40673828 C41.94533108 260.07529984 41.94559381 260.74386141 41.94586449 261.43268241 C41.9471695 264.78657309 41.94843322 268.14046378 41.94967639 271.49435449 C41.96013991 299.32957474 41.97773862 327.16478686 42 355 C46.0629459 350.94732027 46.0629459 350.94732027 50.00390625 346.77734375 C58.9608678 337.09879212 68.18298862 327.7053541 77.5 318.375 C78.10764191 317.76486053 78.71528381 317.15472107 79.34133911 316.52609253 C85.71901026 310.12690681 92.11319769 303.85573319 99 298 C100.77570221 296.38032183 102.54708307 294.75588282 104.3125 293.125 C109.7145687 288.20393742 115.31072246 283.58283084 121 279 C122.38221002 277.87325352 123.76366976 276.74558624 125.14453125 275.6171875 C126.59632311 274.43225361 128.04814593 273.24735766 129.5 272.0625 C130.19504639 271.49426514 130.89009277 270.92603027 131.60620117 270.34057617 C132.26209229 269.8066626 132.9179834 269.27274902 133.59375 268.72265625 C134.17833984 268.24578369 134.76292969 267.76891113 135.36523438 267.27758789 C136.85614151 266.11242705 138.42559817 265.04960122 140 264 C107.825 263.505 107.825 263.505 75 263 C75 249.14 75 235.28 75 221 C92.96975582 220.68220464 110.93706054 220.42507686 128.90885925 220.27462959 C137.25619114 220.20287283 145.60163529 220.10531636 153.94775391 219.94384766 C161.23459361 219.8029413 168.52006498 219.71367137 175.80822945 219.68276107 C179.65716472 219.66472934 183.50219096 219.62334585 187.34985352 219.51977921 C206.90084604 219.01415942 221.175648 221.44192972 237.45956421 233.22222519 C240.90358981 235.63232427 244.52069413 237.69091295 248.1834259 239.74846077 C248.78289536 240.16146872 249.38236481 240.57447666 250 241 C250 241.66 250 242.32 250 243 C249.07703125 243.51046875 248.1540625 244.0209375 247.203125 244.546875 C219.61970856 259.87978728 193.07944279 276.82195644 168 296 C167.35788574 296.49048828 166.71577148 296.98097656 166.05419922 297.48632812 C158.55747679 303.23949021 151.28576403 309.22992437 144.1015625 315.3671875 C141.16497286 317.8714408 138.1826274 320.3159433 135.1875 322.75 C129.41968184 327.45156938 123.7780039 332.20299011 118.52224731 337.47476196 C116.82607706 339.17426464 115.12456515 340.86830622 113.42236328 342.56176758 C109.77278541 346.19343592 106.12635137 349.82824394 102.48095703 353.46411133 C100.91480041 355.02523677 99.34774776 356.58546384 97.77978516 358.14477539 C95.499215 360.4131205 93.22197456 362.68476453 90.9453125 364.95703125 C89.90747116 365.98713066 89.90747116 365.98713066 88.84866333 367.03804016 C84.35943115 371.52676171 80.13170282 376.18172271 76 381 C74.91910807 382.23797485 73.83723048 383.47509054 72.75390625 384.7109375 C66.67084512 391.6848431 60.69673061 398.70454214 55 406 C53.96514359 407.3036235 52.92995718 408.60698506 51.89453125 409.91015625 C43.14869528 420.97328615 34.94872645 432.35297686 27 444 C26.32807617 444.98299072 26.32807617 444.98299072 25.64257812 445.98583984 C20.08877808 454.14108834 14.7572963 462.44084395 9.4375 470.75 C8.50647461 472.19898682 8.50647461 472.19898682 7.55664062 473.67724609 C6.97978516 474.58297363 6.40292969 475.48870117 5.80859375 476.421875 C5.29095459 477.23237305 4.77331543 478.04287109 4.23999023 478.87792969 C2.86363538 481.06644228 2.86363538 481.06644228 2 484 C1.34 484 0.68 484 0 484 C0 324.28 0 164.56 0 0 Z " fill="#4D3D30" transform="translate(277,26)"/>
<path d="M0 0 C0.66 0 1.32 0 2 0 C2 59.73 2 119.46 2 181 C-11.86 181 -25.72 181 -40 181 C-40.33 163.84 -40.66 146.68 -41 129 C-48.19453848 136.84674161 -48.19453848 136.84674161 -55.3828125 144.69921875 C-61.11234692 150.95144402 -66.94556773 157.0586173 -73 163 C-73.845625 163.845625 -74.69125 164.69125 -75.5625 165.5625 C-76.366875 166.366875 -77.17125 167.17125 -78 168 C-78.59296875 168.60457031 -79.1859375 169.20914063 -79.796875 169.83203125 C-83.62826276 173.7153952 -87.54199265 177.40738781 -91.6796875 180.9609375 C-94.04052016 183.03560863 -96.33964902 185.16497577 -98.63623047 187.31005859 C-104.03541354 192.35065916 -109.52429376 197.18747064 -115.2890625 201.8125 C-118.04667837 204.03766554 -120.73976077 206.32776547 -123.4375 208.625 C-135.72962014 218.87904841 -148.72921224 228.33449762 -161.97143555 237.31982422 C-163.6817618 238.49848689 -165.34655799 239.74278438 -167 241 C-167 241.66 -167 242.32 -167 243 C-164.55521758 244.85118068 -162.09788636 246.59279415 -159.5625 248.3125 C-144.06777623 259.02789531 -129.23282957 270.63902917 -114.89672852 282.85717773 C-111.37124617 285.85828555 -107.7973061 288.78765576 -104.1875 291.6875 C-100.25882578 294.88168295 -96.62910728 298.21054268 -93.14453125 301.8828125 C-91.37888095 303.62594995 -89.59221008 305.20617421 -87.703125 306.80859375 C-81.49709664 312.19828463 -75.7635203 318.08780129 -69.96362305 323.90600586 C-67.94235732 325.9326298 -65.91580426 327.95385547 -63.88867188 329.97460938 C-51.48951156 342.36718571 -51.48951156 342.36718571 -46 349 C-45.50113281 349.59353271 -45.00226563 350.18706543 -44.48828125 350.79858398 C-43.31914605 352.19373864 -42.15838019 353.5959028 -41 355 C-39.36330241 351.72660483 -39.87097724 348.10779193 -39.88647461 344.51123047 C-39.88625557 343.19406036 -39.88625557 343.19406036 -39.8860321 341.85028076 C-39.88673042 338.9392248 -39.89451905 336.02823232 -39.90234375 333.1171875 C-39.90420822 331.10222407 -39.90563198 329.08726019 -39.90663147 327.07229614 C-39.91045438 321.7622147 -39.92028276 316.4521605 -39.93133545 311.14208984 C-39.94335028 304.77446557 -39.94795289 298.40683219 -39.95378876 292.03919983 C-39.96349461 282.35944759 -39.98265277 272.67975515 -40 263 C-58.81 263 -77.62 263 -97 263 C-97 249.14 -97 235.28 -97 221 C-64.33 221 -31.66 221 2 221 C2 307.79 2 394.58 2 484 C1.34 484 0.68 484 0 484 C-0.34538818 483.34588135 -0.69077637 482.6917627 -1.04663086 482.01782227 C-4.92041189 474.78697724 -9.12680717 467.83584717 -13.5625 460.9375 C-14.25996338 459.85057861 -14.95742676 458.76365723 -15.67602539 457.64379883 C-21.79477098 448.18248905 -28.25921458 439.02531939 -35 430 C-35.81792331 428.89599257 -36.63564643 427.79183678 -37.453125 426.6875 C-39.61929772 423.77907229 -41.80579611 420.88731884 -44 418 C-44.77601563 416.96746094 -45.55203125 415.93492187 -46.3515625 414.87109375 C-51.68866692 407.80941477 -57.3092607 401.05164614 -63.10546875 394.36328125 C-66.49832997 390.4413713 -69.76650579 386.4251075 -73.0390625 382.40234375 C-76.69570172 377.9225965 -80.38418054 373.60043723 -84.48049927 369.51651001 C-86.14746599 367.85282426 -87.80906385 366.18389549 -89.4699707 364.51416016 C-92.98982443 360.97640058 -96.51281436 357.44178155 -100.03686523 353.90820312 C-101.54948836 352.39054928 -103.06121301 350.87199938 -104.57202148 349.35253906 C-106.77086528 347.14146481 -108.97301237 344.93372562 -111.17578125 342.7265625 C-111.84064041 342.05654205 -112.50549957 341.38652161 -113.19050598 340.69619751 C-117.62790119 336.25828182 -122.23825525 332.08606586 -127 328 C-128.23793886 326.91906685 -129.47505058 325.83718489 -130.7109375 324.75390625 C-137.68510755 318.67107281 -144.7128478 312.7073421 -152 307 C-153.01964844 306.18402344 -154.03929687 305.36804688 -155.08984375 304.52734375 C-163.76661085 297.6018856 -172.69097934 291.05803799 -181.73291016 284.61865234 C-183.9261022 283.05276141 -186.1102533 281.47497985 -188.29296875 279.89453125 C-197.58613348 273.20246298 -207.13211822 267.09695613 -216.96191406 261.22558594 C-219.87126518 259.47607197 -222.74576036 257.67363612 -225.625 255.875 C-232.95290909 251.35252601 -240.47090473 247.17531342 -248 243 C-248 242.34 -248 241.68 -248 241 C-247.29617187 240.59797363 -246.59234375 240.19594727 -245.8671875 239.78173828 C-225.71077657 228.26124621 -225.71077657 228.26124621 -206 216 C-205.39752441 215.61070312 -204.79504883 215.22140625 -204.17431641 214.8203125 C-184.42897359 202.00912797 -165.18437361 188.04404135 -147.33886719 172.68676758 C-143.8516463 169.68983254 -140.26726057 166.90153476 -136.55859375 164.1875 C-134.51350604 162.62933794 -132.7886846 160.84458099 -131 159 C-129.78039253 157.91918393 -128.55283549 156.84731417 -127.3203125 155.78125 C-116.14096356 146.03640816 -105.55833306 135.65750859 -95.0625 125.1875 C-94.56820496 124.69579315 -94.07390991 124.2040863 -93.56463623 123.69747925 C-92.15605565 122.29473573 -90.75176312 120.88769032 -89.34765625 119.48046875 C-88.12574585 118.25686646 -88.12574585 118.25686646 -86.87915039 117.00854492 C-84.95040171 115.13788268 -84.95040171 115.13788268 -84 113 C-83.34 113 -82.68 113 -82 113 C-81.61134766 112.11634766 -81.61134766 112.11634766 -81.21484375 111.21484375 C-79.91576581 108.84642835 -78.5324037 107.39684043 -76.5625 105.5625 C-73.79511614 102.88641127 -71.93316047 100.33909535 -70 97 C-68.34055136 95.32614643 -66.6725957 93.66071647 -65 92 C-55.90484253 81.98433566 -47.78264856 71.2808178 -39.76464844 60.39501953 C-38.14356854 58.19485436 -36.51466742 56.00077167 -34.8828125 53.80859375 C-29.8249007 46.99402135 -24.93165409 40.104939 -20.30078125 32.99023438 C-18.64772214 30.4610043 -16.97927849 27.94208416 -15.3125 25.421875 C-13.95794596 23.36483837 -12.60378354 21.3075438 -11.25 19.25 C-10.5993457 18.26708984 -9.94869141 17.28417969 -9.27832031 16.27148438 C-5.80987745 10.97820635 -2.68877567 5.73062289 0 0 Z " fill="#4D3D30" transform="translate(257,26)"/>
<path d="" fill="#4D3D30" transform="translate(0,0)"/>
<path d="" fill="#4D3D30" transform="translate(0,0)"/>
<path d="" fill="#4D3D30" transform="translate(0,0)"/>
<path d="" fill="#4D3D30" transform="translate(0,0)"/>
<path d="" fill="#4D3D30" transform="translate(0,0)"/>
<path d="" fill="#4D3D30" transform="translate(0,0)"/>
<path d="" fill="#4D3D30" transform="translate(0,0)"/>
<path d="" fill="#4D3D30" transform="translate(0,0)"/>
<path d="" fill="#4D3D30" transform="translate(0,0)"/>
<path d="" fill="#4D3D30" transform="translate(0,0)"/>
<path d="" fill="#4D3D30" transform="translate(0,0)"/>
<path d="" fill="#4D3D30" transform="translate(0,0)"/>
<path d="" fill="#4D3D30" transform="translate(0,0)"/>
<path d="" fill="#4D3D30" transform="translate(0,0)"/>
<path d="" fill="#4D3D30" transform="translate(0,0)"/>
<path d="" fill="#4D3D30" transform="translate(0,0)"/>
<path d="" fill="#4D3D30" transform="translate(0,0)"/>
<path d="" fill="#4D3D30" transform="translate(0,0)"/>
<path d="" fill="#4D3D30" transform="translate(0,0)"/>
<path d="" fill="#4D3D30" transform="translate(0,0)"/>
<path d="" fill="#4D3D30" transform="translate(0,0)"/>
<path d="" fill="#4D3D30" transform="translate(0,0)"/>
<path d="" fill="#4D3D30" transform="translate(0,0)"/>
<path d="" fill="#4D3D30" transform="translate(0,0)"/>
<path d="" fill="#4D3D30" transform="translate(0,0)"/>
<path d="" fill="#4D3D30" transform="translate(0,0)"/>
<path d="" fill="#4D3D30" transform="translate(0,0)"/>
<path d="" fill="#4D3D30" transform="translate(0,0)"/>
<path d="" fill="#4D3D30" transform="translate(0,0)"/>
<path d="" fill="#4D3D30" transform="translate(0,0)"/>
<path d="" fill="#4D3D30" transform="translate(0,0)"/>
<path d="" fill="#4D3D30" transform="translate(0,0)"/>
<path d="" fill="#4D3D30" transform="translate(0,0)"/>
<path d="" fill="#4D3D30" transform="translate(0,0)"/>
<path d="" fill="#4D3D30" transform="translate(0,0)"/>
<path d="" fill="#4D3D30" transform="translate(0,0)"/>
</svg>
